{
  "accessors": [
    {
      "bufferView": 2,
      "componentType": 5126,
      "count": 382,
      "max": [
        28.744129180908203,
        102.4884033203125,
        4.644199848175049
      ],
      "min": [
        -5.232419967651367,
        0.0,
        -6.463240146636963
      ],
      "type": "VEC3"
    },
    {
      "bufferView": 2,
      "byteOffset": 4584,
      "componentType": 5126,
      "count": 382,
      "max": [
        0.9998049139976501,
        0.7128493189811707,
        0.999994158744812
      ],
      "min": [
        -0.9998857378959656,
        -0.6721726059913635,
        -0.9999957084655762
      ],
      "type": "VEC3"
    },
    {
      "bufferView": 3,
      "componentType": 5126,
      "count": 382,
      "max": [
        0.9997738003730774,
        0.7035638093948364,
        0.9999922513961792,
        1.0
      ],
      "min": [
        -0.9999122619628906,
        -0.6740689277648926,
        -0.9998101592063904,
        1.0
      ],
      "type": "VEC4"
    },
    {
      "bufferView": 1,
      "componentType": 5126,
      "count": 382,
      "max": [
        -0.0014600000577047467,
        10.0
      ],
      "min": [
        -0.9995099902153015,
        0.11467999964952469
      ],
      "type": "VEC2"
    },
    {
      "bufferView": 0,
      "componentType": 5125,
      "count": 1908,
      "type": "SCALAR"
    },
    {
      "bufferView": 2,
      "byteOffset": 9168,
      "componentType": 5126,
      "count": 82,
      "max": [
        31.863740921020508,
        126.26396179199219,
        4.247429847717285
      ],
      "min": [
        -2.5878899097442627,
        52.93778991699219,
        -6.67149019241333
      ],
      "type": "VEC3"
    },
    {
      "bufferView": 2,
      "byteOffset": 10152,
      "componentType": 5126,
      "count": 82,
      "max": [
        0.9975523948669434,
        0.7654998898506165,
        0.9944462776184082
      ],
      "min": [
        -0.997463583946228,
        -0.397710382938385,
        -0.9927170276641846
      ],
      "type": "VEC3"
    },
    {
      "bufferView": 3,
      "byteOffset": 6112,
      "componentType": 5126,
      "count": 82,
      "max": [
        0.9963686466217041,
        0.3542291224002838,
        0.9973254799842834,
        1.0
      ],
      "min": [
        -0.9993001818656921,
        -0.4921710193157196,
        -0.998066782951355,
        -1.0
      ],
      "type": "VEC4"
    },
    {
      "bufferView": 1,
      "byteOffset": 3056,
      "componentType": 5126,
      "count": 82,
      "max": [
        -0.0014600000577047467,
        1.0
      ],
      "min": [
        -0.9995099902153015,
        -0.0
      ],
      "type": "VEC2"
    },
    {
      "bufferView": 0,
      "byteOffset": 7632,
      "componentType": 5125,
      "count": 324,
      "type": "SCALAR"
    },
    {
      "bufferView": 2,
      "byteOffset": 11136,
      "componentType": 5126,
      "count": 3200,
      "max": [
        65.27298736572266,
        142.800537109375,
        38.38066101074219
      ],
      "min": [
        -32.982479095458984,
        24.7960205078125,
        -50.999691009521484
      ],
      "type": "VEC3"
    },
    {
      "bufferView": 2,
      "byteOffset": 49536,
      "componentType": 5126,
      "count": 3200,
      "max": [
        0.9999274015426636,
        0.9997235536575317,
        0.9995339512825012
      ],
      "min": [
        -0.9999274015426636,
        -0.9997235536575317,
        -0.9995339512825012
      ],
      "type": "VEC3"
    },
    {
      "bufferView": 3,
      "byteOffset": 7424,
      "componentType": 5126,
      "count": 3200,
      "max": [
        0.9995294213294983,
        0.9998242259025574,
        0.9995356202125549,
        1.0
      ],
      "min": [
        -0.9996637105941772,
        -0.9965229034423828,
        -0.9999418258666992,
        -1.0
      ],
      "type": "VEC4"
    },
    {
      "bufferView": 1,
      "byteOffset": 3712,
      "componentType": 5126,
      "count": 3200,
      "max": [
        1.000100016593933,
        -0.0
      ],
      "min": [
        9.999999747378752e-05,
        -3.0
      ],
      "type": "VEC2"
    },
    {
      "bufferView": 0,
      "byteOffset": 8928,
      "componentType": 5125,
      "count": 13824,
      "type": "SCALAR"
    },
    {
      "bufferView": 2,
      "byteOffset": 87936,
      "componentType": 5126,
      "count": 1248,
      "max": [
        44.45718002319336,
        136.42591857910156,
        16.233810424804688
      ],
      "min": [
        -12.576990127563477,
        58.384521484375,
        -20.681140899658203
      ],
      "type": "VEC3"
    },
    {
      "bufferView": 2,
      "byteOffset": 102912,
      "componentType": 5126,
      "count": 1248,
      "max": [
        0.9987499117851257,
        0.9735264778137207,
        0.9992516040802002
      ],
      "min": [
        -0.997154712677002,
        -0.9543530344963074,
        -0.9930458068847656
      ],
      "type": "VEC3"
    },
    {
      "bufferView": 3,
      "byteOffset": 58624,
      "componentType": 5126,
      "count": 1248,
      "max": [
        0.9935420155525208,
        0.7626830339431763,
        0.9901688098907471,
        1.0
      ],
      "min": [
        -0.9919763207435608,
        -0.9997937083244324,
        -0.9787815809249878,
        1.0
      ],
      "type": "VEC4"
    },
    {
      "bufferView": 1,
      "byteOffset": 29312,
      "componentType": 5126,
      "count": 1248,
      "max": [
        -0.0014600000577047467,
        0.0
      ],
      "min": [
        -0.9995099902153015,
        -1.0
      ],
      "type": "VEC2"
    },
    {
      "bufferView": 0,
      "byteOffset": 64224,
      "componentType": 5125,
      "count": 3168,
      "type": "SCALAR"
    },
    {
      "bufferView": 2,
      "byteOffset": 117888,
      "componentType": 5126,
      "count": 140,
      "max": [
        33.322608947753906,
        123.0329818725586,
        4.777770042419434
      ],
      "min": [
        -4.008180141448975,
        53.41284942626953,
        -9.273300170898438
      ],
      "type": "VEC3"
    },
    {
      "bufferView": 2,
      "byteOffset": 119568,
      "componentType": 5126,
      "count": 140,
      "max": [
        0.9958559274673462,
        0.8979780673980713,
        0.9522227644920349
      ],
      "min": [
        -0.9942623972892761,
        -0.7466205358505249,
        -0.9926874041557312
      ],
      "type": "VEC3"
    },
    {
      "bufferView": 3,
      "byteOffset": 78592,
      "componentType": 5126,
      "count": 140,
      "max": [
        0.9940510988235474,
        0.9253930449485779,
        0.996031641960144,
        1.0
      ],
      "min": [
        -0.9364674687385559,
        -0.9994714260101318,
        -0.9962661862373352,
        -1.0
      ],
      "type": "VEC4"
    },
    {
      "bufferView": 1,
      "byteOffset": 39296,
      "componentType": 5126,
      "count": 140,
      "max": [
        -0.0014600000577047467,
        1.024999976158142
      ],
      "min": [
        -0.9995099902153015,
        0.0
      ],
      "type": "VEC2"
    },
    {
      "bufferView": 0,
      "byteOffset": 76896,
      "componentType": 5125,
      "count": 540,
      "type": "SCALAR"
    },
    {
      "bufferView": 2,
      "byteOffset": 121248,
      "componentType": 5126,
      "count": 1908,
      "max": [
        36.425750732421875,
        118.99786376953125,
        7.68287992477417
      ],
      "min": [
        -7.063429832458496,
        52.00374984741211,
        -12.842100143432617
      ],
      "type": "VEC3"
    },
    {
      "bufferView": 2,
      "byteOffset": 144144,
      "componentType": 5126,
      "count": 1908,
      "max": [
        0.9969483613967896,
        0.9945088624954224,
        0.9984397888183594
      ],
      "min": [
        -0.9990824460983276,
        -0.9990192651748657,
        -0.9983846545219421
      ],
      "type": "VEC3"
    },
    {
      "bufferView": 3,
      "byteOffset": 80832,
      "componentType": 5126,
      "count": 1908,
      "max": [
        0.999822735786438,
        0.9486889243125916,
        0.9996204376220703,
        1.0
      ],
      "min": [
        -0.9975333213806152,
        -0.9671289920806885,
        -0.9978240728378296,
        -1.0
      ],
      "type": "VEC4"
    },
    {
      "bufferView": 1,
      "byteOffset": 40416,
      "componentType": 5126,
      "count": 1908,
      "max": [
        1.9946399927139282,
        1.0
      ],
      "min": [
        -0.9995099902153015,
        -0.9923999905586243
      ],
      "type": "VEC2"
    },
    {
      "bufferView": 0,
      "byteOffset": 79056,
      "componentType": 5125,
      "count": 7560,
      "type": "SCALAR"
    }
  ],
  "asset": {
    "extras": {
      "author": "evolveduk (https://sketchfab.com/evolveduk)",
      "license": "CC-BY-4.0 (http://creativecommons.org/licenses/by/4.0/)",
      "source": "https://sketchfab.com/3d-models/coconut-palm-26e787f2ff2e4c0fb004c3b0210805a3",
      "title": "Coconut Palm"
    },
    "generator": "Sketchfab-13.17.0",
    "version": "2.0"
  },
  "bufferViews": [
    {
      "buffer": 0,
      "byteLength": 109296,
      "name": "floatBufferViews",
      "target": 34963
    },
    {
      "buffer": 0,
      "byteLength": 55680,
      "byteOffset": 109296,
      "byteStride": 8,
      "name": "floatBufferViews",
      "target": 34962
    },
    {
      "buffer": 0,
      "byteLength": 167040,
      "byteOffset": 164976,
      "byteStride": 12,
      "name": "floatBufferViews",
      "target": 34962
    },
    {
      "buffer": 0,
      "byteLength": 111360,
      "byteOffset": 332016,
      "byteStride": 16,
      "name": "floatBufferViews",
      "target": 34962
    }
  ],
  "buffers": [
    {
      "byteLength": 443376,
      "uri": "scene.bin"
    }
  ],
  "images": [
    {
      "uri": "textures/Tree_0Mat_baseColor.png"
    },
    {
      "uri": "textures/Tree_0Mat_metallicRoughness.png"
    },
    {
      "uri": "textures/Tree_0Mat_normal.png"
    },
    {
      "uri": "textures/Tree_1Mat_baseColor.png"
    },
    {
      "uri": "textures/Tree_1Mat_metallicRoughness.png"
    },
    {
      "uri": "textures/Tree_1Mat_normal.png"
    },
    {
      "uri": "textures/Tree_2Mat_baseColor.png"
    },
    {
      "uri": "textures/Tree_2Mat_metallicRoughness.png"
    },
    {
      "uri": "textures/Tree_2Mat_normal.png"
    },
    {
      "uri": "textures/Tree_3Mat_baseColor.png"
    },
    {
      "uri": "textures/Tree_3Mat_metallicRoughness.png"
    },
    {
      "uri": "textures/Tree_3Mat_normal.png"
    },
    {
      "uri": "textures/Tree_5Mat_baseColor.png"
    },
    {
      "uri": "textures/Tree_5Mat_metallicRoughness.png"
    },
    {
      "uri": "textures/Tree_5Mat_normal.png"
    }
  ],
  "materials": [
    {
      "name": "Tree_0Mat",
      "normalTexture": {
        "index": 2
      },
      "pbrMetallicRoughness": {
        "baseColorTexture": {
          "index": 0
        },
        "metallicFactor": 0.0,
        "metallicRoughnessTexture": {
          "index": 1
        }
      }
    },
    {
      "name": "Tree_1Mat",
      "normalTexture": {
        "index": 5
      },
      "pbrMetallicRoughness": {
        "baseColorTexture": {
          "index": 3
        },
        "metallicFactor": 0.0,
        "metallicRoughnessTexture": {
          "index": 4
        }
      }
    },
    {
      "alphaCutoff": 0.23968891896899946,
      "alphaMode": "MASK",
      "name": "Tree_2Mat",
      "normalTexture": {
        "index": 8
      },
      "pbrMetallicRoughness": {
        "baseColorTexture": {
          "index": 6
        },
        "metallicFactor": 0.0,
        "metallicRoughnessTexture": {
          "index": 7
        }
      }
    },
    {
      "name": "Tree_3Mat",
      "normalTexture": {
        "index": 11
      },
      "pbrMetallicRoughness": {
        "baseColorTexture": {
          "index": 9
        },
        "metallicFactor": 0.0,
        "metallicRoughnessTexture": {
          "index": 10
        }
      }
    },
    {
      "name": "Tree_4Mat",
      "normalTexture": {
        "index": 11
      },
      "pbrMetallicRoughness": {
        "baseColorTexture": {
          "index": 9
        },
        "metallicFactor": 0.0,
        "metallicRoughnessTexture": {
          "index": 10
        }
      }
    },
    {
      "name": "Tree_5Mat",
      "normalTexture": {
        "index": 14
      },
      "pbrMetallicRoughness": {
        "baseColorTexture": {
          "index": 12
        },
        "metallicFactor": 0.0,
        "metallicRoughnessTexture": {
          "index": 13
        }
      }
    }
  ],
  "meshes": [
    {
      "name": "Tree_0_Tree_0Mat_0",
      "primitives": [
        {
          "attributes": {
            "NORMAL": 1,
            "POSITION": 0,
            "TANGENT": 2,
            "TEXCOORD_0": 3
          },
          "indices": 4,
          "material": 0,
          "mode": 4
        }
      ]
    },
    {
      "name": "Tree_1_Tree_1Mat_0",
      "primitives": [
        {
          "attributes": {
            "NORMAL": 6,
            "POSITION": 5,
            "TANGENT": 7,
            "TEXCOORD_0": 8
          },
          "indices": 9,
          "material": 1,
          "mode": 4
        }
      ]
    },
    {
      "name": "Tree_2_Tree_2Mat_0",
      "primitives": [
        {
          "attributes": {
            "NORMAL": 11,
            "POSITION": 10,
            "TANGENT": 12,
            "TEXCOORD_0": 13
          },
          "indices": 14,
          "material": 2,
          "mode": 4
        }
      ]
    },
    {
      "name": "Tree_3_Tree_3Mat_0",
      "primitives": [
        {
          "attributes": {
            "NORMAL": 16,
            "POSITION": 15,
            "TANGENT": 17,
            "TEXCOORD_0": 18
          },
          "indices": 19,
          "material": 3,
          "mode": 4
        }
      ]
    },
    {
      "name": "Tree_4_Tree_4Mat_0",
      "primitives": [
        {
          "attributes": {
            "NORMAL": 21,
            "POSITION": 20,
            "TANGENT": 22,
            "TEXCOORD_0": 23
          },
          "indices": 24,
          "material": 4,
          "mode": 4
        }
      ]
    },
    {
      "name": "Tree_5_Tree_5Mat_0",
      "primitives": [
        {
          "attributes": {
            "NORMAL": 26,
            "POSITION": 25,
            "TANGENT": 27,
            "TEXCOORD_0": 28
          },
          "indices": 29,
          "material": 5,
          "mode": 4
        }
      ]
    }
  ],
  "nodes": [
    {
      "children": [
        1
      ],
      "matrix": [
        1.0,
        0.0,
        0.0,
        0.0,
        0.0,
        2.220446049250313e-16,
        -1.0,
        0.0,
        0.0,
        1.0,
        2.220446049250313e-16,
        0.0,
        0.0,
        0.0,
        0.0,
        1.0
      ],
      "name": "Sketchfab_model"
    },
    {
      "children": [
        2
      ],
      "matrix": [
        0.009999999776482582,
        0.0,
        0.0,
        0.0,
        0.0,
        0.0,
        0.009999999776482582,
        0.0,
        0.0,
        -0.009999999776482582,
        0.0,
        0.0,
        0.0,
        0.0,
        0.0,
        1.0
      ],
      "name": "coconut palm.fbx"
    },
    {
      "children": [
        3
      ],
      "name": "RootNode"
    },
    {
      "children": [
        4,
        5
      ],
      "name": "Tree_0"
    },
    {
      "mesh": 0,
      "name": "Tree_0_Tree_0Mat_0"
    },
    {
      "children": [
        6,
        7
      ],
      "name": "Tree_1"
    },
    {
      "mesh": 1,
      "name": "Tree_1_Tree_1Mat_0"
    },
    {
      "children": [
        8,
        9
      ],
      "name": "Tree_2"
    },
    {
      "mesh": 2,
      "name": "Tree_2_Tree_2Mat_0"
    },
    {
      "children": [
        10,
        11
      ],
      "name": "Tree_3"
    },
    {
      "mesh": 3,
      "name": "Tree_3_Tree_3Mat_0"
    },
    {
      "children": [
        12,
        13
      ],
      "name": "Tree_4"
    },
    {
      "mesh": 4,
      "name": "Tree_4_Tree_4Mat_0"
    },
    {
      "children": [
        14
      ],
      "name": "Tree_5"
    },
    {
      "mesh": 5,
      "name": "Tree_5_Tree_5Mat_0"
    }
  ],
  "samplers": [
    {
      "magFilter": 9729,
      "minFilter": 9987,
      "wrapS": 10497,
      "wrapT": 10497
    }
  ],
  "scene": 0,
  "scenes": [
    {
      "name": "Sketchfab_Scene",
      "nodes": [
        0
      ]
    }
  ],
  "textures": [
    {
      "sampler": 0,
      "source": 0
    },
    {
      "sampler": 0,
      "source": 1
    },
    {
      "sampler": 0,
      "source": 2
    },
    {
      "sampler": 0,
      "source": 3
    },
    {
      "sampler": 0,
      "source": 4
    },
    {
      "sampler": 0,
      "source": 5
    },
    {
      "sampler": 0,
      "source": 6
    },
    {
      "sampler": 0,
      "source": 7
    },
    {
      "sampler": 0,
      "source": 8
    },
    {
      "sampler": 0,
      "source": 9
    },
    {
      "sampler": 0,
      "source": 10
    },
    {
      "sampler": 0,
      "source": 11
    },
    {
      "sampler": 0,
      "source": 12
    },
    {
      "sampler": 0,
      "source": 13
    },
    {
      "sampler": 0,
      "source": 14
    }
  ]
}
